<svg version="1.1" id="Layer_1" xmlns="http://www.w3.org/2000/svg" xmlns:xlink="http://www.w3.org/1999/xlink" x="0px" y="0px"
	 width="100%" viewBox="0 0 605 477" enable-background="new 0 0 605 477" xml:space="preserve">
<path fill="#EBF0F2" opacity="1.000000" stroke="none" 
	d="
M606.000000,5.000000 
	C606.000000,162.623428 606.000000,320.246857 606.000000,477.935120 
	C404.431915,477.935120 202.863800,477.935120 1.000000,477.935120 
	C1.000000,320.641876 1.000000,163.283585 1.461255,5.462784 
	C203.281677,5.000194 404.640839,5.000097 606.000000,5.000000 
M227.500000,238.999847 
	C238.585770,238.999847 249.671555,238.999847 260.641174,238.999847 
	C260.641174,244.986618 260.641174,250.242874 260.641174,255.396469 
	C260.042999,255.604691 259.742798,255.797913 259.440765,255.800858 
	C255.609634,255.838303 251.778259,255.852600 247.946930,255.864532 
	C240.227982,255.888580 239.912888,256.188934 239.896545,263.664185 
	C239.890732,266.330109 239.863693,268.996826 239.913223,271.661926 
	C240.086792,281.002777 246.951691,288.114075 256.287598,288.151917 
	C282.780243,288.259338 309.273712,288.231232 335.766632,288.166840 
	C343.088654,288.149017 349.151428,284.045471 350.978668,276.914429 
	C352.186310,272.201630 351.745270,267.073761 352.118073,262.137421 
	C352.455048,257.675903 350.497253,255.696609 345.998016,255.839539 
	C341.079254,255.995804 336.151642,255.875061 331.362335,255.875061 
	C331.362335,249.837814 331.362335,244.578690 331.362335,239.016174 
	C333.300964,239.016174 334.941010,239.016663 336.581055,239.016098 
	C358.908569,239.008560 381.236115,239.016052 403.563599,238.987595 
	C417.326080,238.970062 425.726624,230.820587 425.746033,217.032883 
	C425.821869,163.213638 425.811188,109.394173 425.742615,55.574898 
	C425.725800,42.379223 417.378387,34.111210 404.181000,34.103340 
	C332.033081,34.060322 259.885162,34.061501 187.737228,34.091270 
	C174.822037,34.096600 166.327606,42.315170 166.304565,55.150581 
	C166.207321,109.302971 166.204651,163.455673 166.277039,217.608109 
	C166.294540,230.694473 174.885391,238.965729 188.010010,238.991821 
	C200.839951,239.017334 213.669998,238.998947 227.500000,238.999847 
M234.261826,378.605896 
	C224.528595,380.471222 223.742722,381.379242 223.124237,391.106110 
	C222.776001,396.582825 222.428299,402.061951 221.925262,407.525757 
	C221.426056,412.947937 220.732285,418.352264 220.123840,423.764404 
	C218.786011,422.253571 218.424683,420.823822 218.282532,419.372620 
	C217.165039,407.964417 215.923904,396.564240 215.085342,385.134857 
	C214.765472,380.775177 212.300323,378.708466 208.705246,378.054871 
	C200.342361,376.534424 192.223740,377.763641 184.429337,381.224762 
	C180.557068,382.944275 179.534775,385.203247 181.182434,389.444031 
	C187.536728,405.798981 193.609772,422.264954 199.639969,438.743591 
	C206.844498,458.431366 206.778961,458.455292 227.718826,456.083557 
	C227.883987,456.064850 228.051529,456.068146 228.217529,456.055695 
	C231.731308,455.792542 233.722168,454.026276 234.929794,450.580292 
	C242.377213,429.328918 250.017532,408.145203 257.592651,386.938568 
	C259.647766,381.185272 258.162720,378.438782 251.927719,378.018768 
	C246.328217,377.641602 240.670242,378.132294 234.261826,378.605896 
M394.293213,457.979645 
	C401.298889,457.810242 406.530029,454.753510 409.617401,447.170868 
	C410.823608,457.095337 410.825836,457.196960 419.475677,457.008057 
	C424.126099,456.906494 428.762909,456.242584 433.414154,456.098175 
	C437.381042,455.975067 438.855530,454.370361 438.807800,450.260010 
	C438.612366,433.433533 438.743073,416.603424 438.720520,399.774689 
	C438.712646,393.904083 437.297058,391.906067 431.475067,392.194885 
	C425.241486,392.504089 419.041962,393.890381 412.879242,395.075256 
	C409.700104,395.686493 408.380127,397.872894 408.461060,401.286255 
	C408.650604,409.279480 408.514862,417.280396 408.515106,425.278198 
	C408.515228,429.443604 408.770325,433.631287 408.395813,437.762299 
	C408.265015,439.205353 406.592346,440.508606 405.623779,441.875671 
	C404.354095,440.794556 402.428864,439.939148 401.961548,438.581787 
	C401.173004,436.291412 401.111176,433.684753 401.089081,431.208008 
	C400.993988,420.544983 400.936920,409.879913 401.056427,399.217682 
	C401.099060,395.411499 399.661224,393.369659 395.853363,392.647888 
	C387.842682,391.129425 380.330841,392.846985 373.141205,396.117096 
	C371.991272,396.640106 371.095551,399.003326 371.076569,400.528168 
	C370.929474,412.356018 370.865814,424.189911 371.088409,436.016083 
	C371.373047,451.139374 378.151337,457.675507 394.293213,457.979645 
M93.921448,431.372742 
	C90.902863,432.245636 87.922020,433.293732 84.857613,433.953949 
	C78.999123,435.216064 75.340965,433.701080 74.324249,427.940308 
	C73.226425,421.720032 72.945496,415.025299 74.025810,408.837402 
	C75.274666,401.684174 79.448143,399.912811 86.636459,401.493958 
	C88.894409,401.990601 91.139877,402.543945 93.397652,403.041443 
	C102.786484,405.110413 103.971809,404.380768 106.432465,394.943634 
	C106.765266,393.667267 107.024216,392.355133 107.148407,391.043610 
	C107.914856,382.949615 105.348518,379.081421 97.170601,378.019135 
	C89.961639,377.082764 82.486275,376.256989 75.345131,377.137970 
	C59.936108,379.038879 48.082775,386.619232 43.207870,402.226562 
	C40.073978,412.259949 40.260082,422.517120 42.830902,432.755554 
	C46.162403,446.023407 54.591656,454.708374 67.816002,456.655304 
	C77.325218,458.055298 87.375114,457.340942 96.984108,456.065338 
	C106.522110,454.799225 108.816689,450.042755 106.510139,440.797089 
	C106.270134,439.834991 106.148300,438.842651 105.893036,437.885284 
	C103.901794,430.417236 102.164413,429.368042 93.921448,431.372742 
M511.163422,406.585815 
	C508.282593,399.263702 503.031952,394.887604 495.362274,392.869232 
	C483.532379,389.756012 472.016235,390.755737 460.618073,394.601654 
	C448.160858,398.804962 446.930786,404.032227 455.829437,413.816742 
	C457.700317,415.873871 459.319458,416.183319 461.902283,414.976105 
	C465.922760,413.096985 470.097137,411.309814 474.399139,410.333923 
	C479.173279,409.251007 481.523010,411.505280 482.258179,416.922363 
	C480.633728,417.032867 478.976807,416.948761 477.410492,417.285828 
	C470.173248,418.843018 462.652527,419.723389 455.828247,422.376434 
	C449.201599,424.952667 445.870880,431.094147 446.087982,438.367615 
	C446.298950,445.435669 448.260284,451.887817 455.328888,455.325928 
	C461.050171,458.108673 467.292816,459.330078 473.195312,457.138245 
	C477.316406,455.607941 480.699524,452.090363 484.129303,449.660919 
	C484.008362,449.209015 484.421478,449.999695 484.395294,450.775543 
	C484.208466,456.309875 487.507965,457.385925 492.110168,457.053833 
	C497.741516,456.647430 503.382172,456.371216 509.017334,456.015594 
	C511.744873,455.843445 513.126099,454.677643 513.011230,451.620026 
	C512.798950,445.969208 513.127991,440.297852 512.907837,434.647644 
	C512.553040,425.539948 511.935822,416.442444 511.163422,406.585815 
M333.485199,434.245544 
	C335.609741,437.613525 333.229248,438.781525 330.738953,438.577179 
	C326.006897,438.188934 321.159790,437.626373 316.671295,436.174988 
	C307.403717,433.178223 306.286102,433.486023 303.113800,442.712708 
	C302.899170,443.337036 302.837067,444.012238 302.649200,444.647583 
	C300.614197,451.529480 301.220215,453.058472 308.292511,455.086914 
	C320.964386,458.721436 333.922150,459.270752 346.773041,456.482788 
	C358.559387,453.925781 363.945007,447.237152 364.057739,436.609528 
	C364.168671,426.147003 359.817566,421.183197 347.374329,417.741425 
	C343.867584,416.771454 340.251740,416.173950 336.788300,415.081238 
	C335.566864,414.695892 334.650879,413.342346 333.595428,412.430878 
	C334.751099,411.644806 335.816528,410.475159 337.086792,410.176331 
	C338.463226,409.852539 340.071991,410.166595 341.506683,410.508118 
	C345.211212,411.390045 348.833405,412.708313 352.575836,413.298370 
	C354.186829,413.552368 356.858429,412.976959 357.584625,411.841949 
	C359.784607,408.403473 361.515717,404.599365 362.950989,400.758881 
	C364.020233,397.897858 362.828278,395.326599 359.778717,394.425873 
	C355.676147,393.214172 351.502136,391.950623 347.275360,391.510773 
	C336.485657,390.387970 325.673035,390.042084 315.400665,394.579010 
	C307.937866,397.875031 303.930786,405.225952 304.342957,414.657471 
	C304.690399,422.607910 308.370056,427.319977 316.908142,429.934418 
	C322.101685,431.524750 327.470490,432.542694 333.485199,434.245544 
M120.826218,399.391266 
	C111.149124,413.845276 116.168030,427.085480 132.851929,431.019775 
	C136.382446,431.852325 140.015533,432.301697 143.478973,433.337097 
	C144.592651,433.670013 145.313293,435.317627 146.213745,436.363800 
	C145.091965,437.129852 143.896698,438.637451 142.860992,438.534821 
	C138.129150,438.065918 133.256653,437.718170 128.777176,436.268585 
	C119.216446,433.174713 118.309036,433.382202 114.994125,442.997894 
	C114.670090,443.937866 114.343910,444.883209 114.115257,445.848907 
	C112.840546,451.232605 113.631172,453.820099 119.046288,454.694641 
	C129.299194,456.350525 139.726242,457.497772 150.096130,457.625854 
	C155.496414,457.692505 161.294098,455.917328 166.264816,453.590820 
	C174.528030,449.723236 176.822632,442.049255 175.937729,433.470154 
	C175.134872,425.686584 170.559280,420.830017 163.060486,418.801270 
	C158.599884,417.594452 154.032562,416.759827 149.620621,415.407532 
	C148.114777,414.946014 146.936386,413.416107 145.608383,412.374359 
	C147.274429,411.596161 149.002716,410.063812 150.593689,410.195160 
	C154.018188,410.477844 157.418945,411.457397 160.745148,412.437683 
	C168.057709,414.592743 168.976883,414.295868 172.414352,407.701019 
	C173.024384,406.530731 173.590820,405.324799 174.039200,404.085327 
	C176.410660,397.529938 175.241180,394.243835 168.465637,393.237030 
	C159.166290,391.855255 149.659698,391.133514 140.269135,391.343872 
	C133.373856,391.498413 126.484238,393.508911 120.826218,399.391266 
M540.994324,456.740448 
	C542.307861,456.535400 543.633606,456.098755 544.932800,456.167023 
	C549.530701,456.408630 551.179321,454.685181 551.125854,449.787323 
	C550.862427,425.663727 550.910217,401.535095 551.080627,377.409882 
	C551.113403,372.769714 549.153992,370.007751 544.895813,370.256287 
	C538.355469,370.637970 531.828918,371.775604 525.382507,373.033234 
	C522.124817,373.668732 520.887817,376.114349 520.912720,379.720154 
	C521.078430,403.679077 521.106201,427.640503 520.909973,451.598938 
	C520.876404,455.699280 522.620972,456.949677 526.108582,456.965210 
	C530.765076,456.985992 535.422180,456.887817 540.994324,456.740448 
M278.358795,456.947723 
	C282.337860,456.622162 286.323395,456.358917 290.293762,455.949005 
	C292.919952,455.677887 294.226166,454.491150 294.197205,451.426208 
	C294.036743,434.437714 294.016876,417.445984 294.185333,400.457703 
	C294.226196,396.337860 292.085327,394.111572 288.685455,394.299164 
	C282.141510,394.660278 275.601440,395.689392 269.150635,396.918335 
	C265.271240,397.657379 263.790588,400.420776 263.874908,404.631073 
	C264.134918,417.618164 263.964508,430.613861 263.965332,443.606201 
	C263.966187,457.085999 263.968231,457.085999 278.358795,456.947723 
M279.490601,369.997192 
	C275.933411,370.563995 272.252014,370.736908 268.853851,371.808136 
	C265.438385,372.884827 263.851715,375.721893 263.774628,379.493805 
	C263.695099,383.382233 264.995026,386.429108 268.560150,387.936768 
	C275.738953,390.972656 283.085510,390.965759 290.218018,387.824951 
	C293.741577,386.273346 295.165222,383.002258 294.932068,379.244690 
	C294.699585,375.497498 292.999573,372.460358 289.166168,371.430939 
	C286.324585,370.667877 283.335052,370.455841 279.490601,369.997192 
z"/>
<path fill="#FFFFFF" opacity="1.000000" stroke="none" 
	d="
M606.000000,4.500031 
	C404.640839,5.000097 203.281677,5.000194 1.461255,5.000145 
	C1.000000,3.667755 1.000000,2.335510 1.000000,1.002449 
	C202.666672,1.001632 404.333344,1.001632 606.000000,1.002071 
	C606.000000,2.001694 606.000000,3.000877 606.000000,4.500031 
z"/>
<path fill="#0B350D" opacity="1.000000" stroke="none" 
	d="
M227.000000,238.999847 
	C213.669998,238.998947 200.839951,239.017334 188.010010,238.991821 
	C174.885391,238.965729 166.294540,230.694473 166.277039,217.608109 
	C166.204651,163.455673 166.207321,109.302971 166.304565,55.150581 
	C166.327606,42.315170 174.822037,34.096600 187.737228,34.091270 
	C259.885162,34.061501 332.033081,34.060322 404.181000,34.103340 
	C417.378387,34.111210 425.725800,42.379223 425.742615,55.574898 
	C425.811188,109.394173 425.821869,163.213638 425.746033,217.032883 
	C425.726624,230.820587 417.326080,238.970062 403.563599,238.987595 
	C381.236115,239.016052 358.908569,239.008560 336.581055,239.016098 
	C334.941010,239.016663 333.300964,239.016174 331.362335,239.016174 
	C331.362335,244.578690 331.362335,249.837814 331.362335,255.875061 
	C336.151642,255.875061 341.079254,255.995804 345.998016,255.839539 
	C350.497253,255.696609 352.455048,257.675903 352.118073,262.137421 
	C351.745270,267.073761 352.186310,272.201630 350.978668,276.914429 
	C349.151428,284.045471 343.088654,288.149017 335.766632,288.166840 
	C309.273712,288.231232 282.780243,288.259338 256.287598,288.151917 
	C246.951691,288.114075 240.086792,281.002777 239.913223,271.661926 
	C239.863693,268.996826 239.890732,266.330109 239.896545,263.664185 
	C239.912888,256.188934 240.227982,255.888580 247.946930,255.864532 
	C251.778259,255.852600 255.609634,255.838303 259.440765,255.800858 
	C259.742798,255.797913 260.042999,255.604691 260.641174,255.396469 
	C260.641174,250.242874 260.641174,244.986618 260.641174,238.999847 
	C249.671555,238.999847 238.585770,238.999847 227.000000,238.999847 
M245.500000,42.955944 
	C226.843933,42.957191 208.187881,42.956738 189.531815,42.960339 
	C178.807327,42.962406 175.072067,46.625122 175.070419,57.220417 
	C175.062149,110.190659 175.064178,163.160889 175.069580,216.131134 
	C175.070618,226.158585 178.928085,230.066986 188.839844,230.068253 
	C260.132935,230.077362 331.426056,230.081512 402.719147,230.078156 
	C413.288910,230.077652 416.945007,226.338181 416.944916,215.568283 
	C416.944427,162.931183 416.940460,110.294090 416.929413,57.656990 
	C416.927063,46.570980 413.354645,42.956295 402.412415,42.955444 
	C350.441620,42.951405 298.470795,42.955196 245.500000,42.955944 
M275.567505,239.028412 
	C273.642639,239.028412 271.717743,239.028412 269.853333,239.028412 
	C269.711823,240.216217 269.601166,240.710419 269.601990,241.204407 
	C269.611694,246.868774 269.507172,252.537613 269.702606,258.195953 
	C269.854431,262.592346 268.102448,264.724487 263.600433,264.623871 
	C258.816193,264.516968 254.027710,264.599823 249.326431,264.599823 
	C247.447586,276.684631 249.887665,279.534058 261.425629,279.514679 
	C284.752808,279.475525 308.080078,279.484894 331.407318,279.488831 
	C342.080414,279.490631 345.218964,275.362061 342.441162,264.541718 
	C338.195740,264.541718 333.876495,264.529938 329.557343,264.544556 
	C323.436676,264.565247 322.262421,263.318604 322.363312,257.348389 
	C322.463867,251.396545 322.385345,245.441696 322.385345,239.029617 
	C306.801544,239.029617 291.676758,239.029617 275.567505,239.028412 
z"/>
<path fill="#043406" opacity="1.000000" stroke="none" 
	d="
M234.649948,378.423004 
	C240.670242,378.132294 246.328217,377.641602 251.927719,378.018768 
	C258.162720,378.438782 259.647766,381.185272 257.592651,386.938568 
	C250.017532,408.145203 242.377213,429.328918 234.929794,450.580292 
	C233.722168,454.026276 231.731308,455.792542 228.217529,456.055695 
	C228.051529,456.068146 227.883987,456.064850 227.718826,456.083557 
	C206.778961,458.455292 206.844498,458.431366 199.639969,438.743591 
	C193.609772,422.264954 187.536728,405.798981 181.182434,389.444031 
	C179.534775,385.203247 180.557068,382.944275 184.429337,381.224762 
	C192.223740,377.763641 200.342361,376.534424 208.705246,378.054871 
	C212.300323,378.708466 214.765472,380.775177 215.085342,385.134857 
	C215.923904,396.564240 217.165039,407.964417 218.282532,419.372620 
	C218.424683,420.823822 218.786011,422.253571 220.123840,423.764404 
	C220.732285,418.352264 221.426056,412.947937 221.925262,407.525757 
	C222.428299,402.061951 222.776001,396.582825 223.124237,391.106110 
	C223.742722,381.379242 224.528595,380.471222 234.649948,378.423004 
z"/>
<path fill="#043406" opacity="1.000000" stroke="none" 
	d="
M393.849030,457.984955 
	C378.151337,457.675507 371.373047,451.139374 371.088409,436.016083 
	C370.865814,424.189911 370.929474,412.356018 371.076569,400.528168 
	C371.095551,399.003326 371.991272,396.640106 373.141205,396.117096 
	C380.330841,392.846985 387.842682,391.129425 395.853363,392.647888 
	C399.661224,393.369659 401.099060,395.411499 401.056427,399.217682 
	C400.936920,409.879913 400.993988,420.544983 401.089081,431.208008 
	C401.111176,433.684753 401.173004,436.291412 401.961548,438.581787 
	C402.428864,439.939148 404.354095,440.794556 405.623779,441.875671 
	C406.592346,440.508606 408.265015,439.205353 408.395813,437.762299 
	C408.770325,433.631287 408.515228,429.443604 408.515106,425.278198 
	C408.514862,417.280396 408.650604,409.279480 408.461060,401.286255 
	C408.380127,397.872894 409.700104,395.686493 412.879242,395.075256 
	C419.041962,393.890381 425.241486,392.504089 431.475067,392.194885 
	C437.297058,391.906067 438.712646,393.904083 438.720520,399.774689 
	C438.743073,416.603424 438.612366,433.433533 438.807800,450.260010 
	C438.855530,454.370361 437.381042,455.975067 433.414154,456.098175 
	C428.762909,456.242584 424.126099,456.906494 419.475677,457.008057 
	C410.825836,457.196960 410.823608,457.095337 409.617401,447.170868 
	C406.530029,454.753510 401.298889,457.810242 393.849030,457.984955 
z"/>
<path fill="#043406" opacity="1.000000" stroke="none" 
	d="
M94.305771,431.226288 
	C102.164413,429.368042 103.901794,430.417236 105.893036,437.885284 
	C106.148300,438.842651 106.270134,439.834991 106.510139,440.797089 
	C108.816689,450.042755 106.522110,454.799225 96.984108,456.065338 
	C87.375114,457.340942 77.325218,458.055298 67.816002,456.655304 
	C54.591656,454.708374 46.162403,446.023407 42.830902,432.755554 
	C40.260082,422.517120 40.073978,412.259949 43.207870,402.226562 
	C48.082775,386.619232 59.936108,379.038879 75.345131,377.137970 
	C82.486275,376.256989 89.961639,377.082764 97.170601,378.019135 
	C105.348518,379.081421 107.914856,382.949615 107.148407,391.043610 
	C107.024216,392.355133 106.765266,393.667267 106.432465,394.943634 
	C103.971809,404.380768 102.786484,405.110413 93.397652,403.041443 
	C91.139877,402.543945 88.894409,401.990601 86.636459,401.493958 
	C79.448143,399.912811 75.274666,401.684174 74.025810,408.837402 
	C72.945496,415.025299 73.226425,421.720032 74.324249,427.940308 
	C75.340965,433.701080 78.999123,435.216064 84.857613,433.953949 
	C87.922020,433.293732 90.902863,432.245636 94.305771,431.226288 
z"/>
<path fill="#053407" opacity="1.000000" stroke="none" 
	d="
M511.296417,406.963226 
	C511.935822,416.442444 512.553040,425.539948 512.907837,434.647644 
	C513.127991,440.297852 512.798950,445.969208 513.011230,451.620026 
	C513.126099,454.677643 511.744873,455.843445 509.017334,456.015594 
	C503.382172,456.371216 497.741516,456.647430 492.110168,457.053833 
	C487.507965,457.385925 484.208466,456.309875 484.395294,450.775543 
	C484.421478,449.999695 484.008362,449.209015 484.129303,449.660919 
	C480.699524,452.090363 477.316406,455.607941 473.195312,457.138245 
	C467.292816,459.330078 461.050171,458.108673 455.328888,455.325928 
	C448.260284,451.887817 446.298950,445.435669 446.087982,438.367615 
	C445.870880,431.094147 449.201599,424.952667 455.828247,422.376434 
	C462.652527,419.723389 470.173248,418.843018 477.410492,417.285828 
	C478.976807,416.948761 480.633728,417.032867 482.258179,416.922363 
	C481.523010,411.505280 479.173279,409.251007 474.399139,410.333923 
	C470.097137,411.309814 465.922760,413.096985 461.902283,414.976105 
	C459.319458,416.183319 457.700317,415.873871 455.829437,413.816742 
	C446.930786,404.032227 448.160858,398.804962 460.618073,394.601654 
	C472.016235,390.755737 483.532379,389.756012 495.362274,392.869232 
	C503.031952,394.887604 508.282593,399.263702 511.296417,406.963226 
M479.129791,427.531860 
	C476.352112,430.785126 475.210388,434.474121 476.985413,438.490936 
	C477.586517,439.851288 479.224030,440.753632 480.387878,441.865295 
	C481.240326,440.606506 482.715424,439.400665 482.827850,438.078979 
	C483.157532,434.202545 482.945221,430.279968 482.945221,425.981934 
	C481.557159,426.461731 480.665833,426.769836 479.129791,427.531860 
z"/>
<path fill="#053407" opacity="1.000000" stroke="none" 
	d="
M333.122894,434.031647 
	C327.470490,432.542694 322.101685,431.524750 316.908142,429.934418 
	C308.370056,427.319977 304.690399,422.607910 304.342957,414.657471 
	C303.930786,405.225952 307.937866,397.875031 315.400665,394.579010 
	C325.673035,390.042084 336.485657,390.387970 347.275360,391.510773 
	C351.502136,391.950623 355.676147,393.214172 359.778717,394.425873 
	C362.828278,395.326599 364.020233,397.897858 362.950989,400.758881 
	C361.515717,404.599365 359.784607,408.403473 357.584625,411.841949 
	C356.858429,412.976959 354.186829,413.552368 352.575836,413.298370 
	C348.833405,412.708313 345.211212,411.390045 341.506683,410.508118 
	C340.071991,410.166595 338.463226,409.852539 337.086792,410.176331 
	C335.816528,410.475159 334.751099,411.644806 333.595428,412.430847 
	C334.650879,413.342346 335.566864,414.695892 336.788300,415.081238 
	C340.251740,416.173950 343.867584,416.771454 347.374329,417.741425 
	C359.817566,421.183197 364.168671,426.147003 364.057739,436.609528 
	C363.945007,447.237152 358.559387,453.925781 346.773041,456.482788 
	C333.922150,459.270752 320.964386,458.721436 308.292511,455.086914 
	C301.220215,453.058472 300.614197,451.529480 302.649200,444.647583 
	C302.837067,444.012238 302.899170,443.337036 303.113800,442.712708 
	C306.286102,433.486023 307.403717,433.178223 316.671295,436.174988 
	C321.159790,437.626373 326.006897,438.188934 330.738953,438.577179 
	C333.229248,438.781525 335.609741,437.613525 333.122894,434.031647 
z"/>
<path fill="#053407" opacity="1.000000" stroke="none" 
	d="
M121.035294,399.092590 
	C126.484238,393.508911 133.373856,391.498413 140.269135,391.343872 
	C149.659698,391.133514 159.166290,391.855255 168.465637,393.237030 
	C175.241180,394.243835 176.410660,397.529938 174.039200,404.085327 
	C173.590820,405.324799 173.024384,406.530731 172.414352,407.701019 
	C168.976883,414.295868 168.057709,414.592743 160.745148,412.437683 
	C157.418945,411.457397 154.018188,410.477844 150.593689,410.195160 
	C149.002716,410.063812 147.274429,411.596161 145.608383,412.374359 
	C146.936386,413.416107 148.114777,414.946014 149.620621,415.407532 
	C154.032562,416.759827 158.599884,417.594452 163.060486,418.801270 
	C170.559280,420.830017 175.134872,425.686584 175.937729,433.470154 
	C176.822632,442.049255 174.528030,449.723236 166.264816,453.590820 
	C161.294098,455.917328 155.496414,457.692505 150.096130,457.625854 
	C139.726242,457.497772 129.299194,456.350525 119.046288,454.694641 
	C113.631172,453.820099 112.840546,451.232605 114.115257,445.848907 
	C114.343910,444.883209 114.670090,443.937866 114.994125,442.997894 
	C118.309036,433.382202 119.216446,433.174713 128.777176,436.268585 
	C133.256653,437.718170 138.129150,438.065918 142.860992,438.534821 
	C143.896698,438.637451 145.091965,437.129852 146.213745,436.363800 
	C145.313293,435.317627 144.592651,433.670013 143.478973,433.337097 
	C140.015533,432.301697 136.382446,431.852325 132.851929,431.019775 
	C116.168030,427.085480 111.149124,413.845276 121.035294,399.092590 
z"/>
<path fill="#033305" opacity="1.000000" stroke="none" 
	d="
M540.536621,456.790588 
	C535.422180,456.887817 530.765076,456.985992 526.108582,456.965210 
	C522.620972,456.949677 520.876404,455.699280 520.909973,451.598938 
	C521.106201,427.640503 521.078430,403.679077 520.912720,379.720154 
	C520.887817,376.114349 522.124817,373.668732 525.382507,373.033234 
	C531.828918,371.775604 538.355469,370.637970 544.895813,370.256287 
	C549.153992,370.007751 551.113403,372.769714 551.080627,377.409882 
	C550.910217,401.535095 550.862427,425.663727 551.125854,449.787323 
	C551.179321,454.685181 549.530701,456.408630 544.932800,456.167023 
	C543.633606,456.098755 542.307861,456.535400 540.536621,456.790588 
z"/>
<path fill="#033304" opacity="1.000000" stroke="none" 
	d="
M277.885376,456.959900 
	C263.968231,457.085999 263.966187,457.085999 263.965332,443.606201 
	C263.964508,430.613861 264.134918,417.618164 263.874908,404.631073 
	C263.790588,400.420776 265.271240,397.657379 269.150635,396.918335 
	C275.601440,395.689392 282.141510,394.660278 288.685455,394.299164 
	C292.085327,394.111572 294.226196,396.337860 294.185333,400.457703 
	C294.016876,417.445984 294.036743,434.437714 294.197205,451.426208 
	C294.226166,454.491150 292.919952,455.677887 290.293762,455.949005 
	C286.323395,456.358917 282.337860,456.622162 277.885376,456.959900 
z"/>
<path fill="#073409" opacity="1.000000" stroke="none" 
	d="
M279.950989,369.997772 
	C283.335052,370.455841 286.324585,370.667877 289.166168,371.430939 
	C292.999573,372.460358 294.699585,375.497498 294.932068,379.244690 
	C295.165222,383.002258 293.741577,386.273346 290.218018,387.824951 
	C283.085510,390.965759 275.738953,390.972656 268.560150,387.936768 
	C264.995026,386.429108 263.695099,383.382233 263.774628,379.493805 
	C263.851715,375.721893 265.438385,372.884827 268.853851,371.808136 
	C272.252014,370.736908 275.933411,370.563995 279.950989,369.997772 
z"/>
<path fill="#E9F1EF" opacity="1.000000" stroke="none" 
	d="
M246.000000,42.956070 
	C298.470795,42.955196 350.441620,42.951405 402.412415,42.955444 
	C413.354645,42.956295 416.927063,46.570980 416.929413,57.656990 
	C416.940460,110.294090 416.944427,162.931183 416.944916,215.568283 
	C416.945007,226.338181 413.288910,230.077652 402.719147,230.078156 
	C331.426056,230.081512 260.132935,230.077362 188.839844,230.068253 
	C178.928085,230.066986 175.070618,226.158585 175.069580,216.131134 
	C175.064178,163.160889 175.062149,110.190659 175.070419,57.220417 
	C175.072067,46.625122 178.807327,42.962406 189.531815,42.960339 
	C208.187881,42.956738 226.843933,42.957191 246.000000,42.956070 
M291.500000,220.017700 
	C326.829102,220.017929 362.158173,220.018936 397.487274,220.017792 
	C405.990662,220.017502 406.669128,219.364899 406.670929,211.000137 
	C406.681458,161.339233 406.674957,111.678337 406.696625,62.017445 
	C406.700195,53.836201 406.092804,53.161572 397.968384,53.161304 
	C330.142853,53.159069 262.317352,53.160160 194.491821,53.157177 
	C185.702301,53.156788 185.309479,53.529087 185.309235,62.543873 
	C185.307831,112.371475 185.314453,162.199081 185.326218,212.026688 
	C185.327850,218.965836 186.409668,220.011627 193.511139,220.012787 
	C225.840759,220.018082 258.170380,220.017166 291.500000,220.017700 
z"/>
<path fill="#E8EDEE" opacity="1.000000" stroke="none" 
	d="
M276.059753,239.029022 
	C291.676758,239.029617 306.801544,239.029617 322.385345,239.029617 
	C322.385345,245.441696 322.463867,251.396545 322.363312,257.348389 
	C322.262421,263.318604 323.436676,264.565247 329.557343,264.544556 
	C333.876495,264.529938 338.195740,264.541718 342.441162,264.541718 
	C345.218964,275.362061 342.080414,279.490631 331.407318,279.488831 
	C308.080078,279.484894 284.752808,279.475525 261.425629,279.514679 
	C249.887665,279.534058 247.447586,276.684631 249.326431,264.599823 
	C254.027710,264.599823 258.816193,264.516968 263.600433,264.623871 
	C268.102448,264.724487 269.854431,262.592346 269.702606,258.195953 
	C269.507172,252.537613 269.611694,246.868774 269.601990,241.204407 
	C269.601166,240.710419 269.711823,240.216217 269.853333,239.028412 
	C271.717743,239.028412 273.642639,239.028412 276.059753,239.029022 
z"/>
<path fill="#D8EADC" opacity="1.000000" stroke="none" 
	d="
M479.452148,427.304871 
	C480.665833,426.769836 481.557159,426.461731 482.945221,425.981934 
	C482.945221,430.279968 483.157532,434.202545 482.827850,438.078979 
	C482.715424,439.400665 481.240326,440.606506 480.387878,441.865295 
	C479.224030,440.753632 477.586517,439.851288 476.985413,438.490936 
	C475.210388,434.474121 476.352112,430.785126 479.452148,427.304871 
z"/>
<path fill="#0C370E" opacity="1.000000" stroke="none" 
	d="
M291.000000,220.018097 
	C258.170380,220.017166 225.840759,220.018082 193.511139,220.012787 
	C186.409668,220.011627 185.327850,218.965836 185.326218,212.026688 
	C185.314453,162.199081 185.307831,112.371475 185.309235,62.543873 
	C185.309479,53.529087 185.702301,53.156788 194.491821,53.157177 
	C262.317352,53.160160 330.142853,53.159069 397.968384,53.161304 
	C406.092804,53.161572 406.700195,53.836201 406.696625,62.017445 
	C406.674957,111.678337 406.681458,161.339233 406.670929,211.000137 
	C406.669128,219.364899 405.990662,220.017502 397.487274,220.017792 
	C362.158173,220.018936 326.829102,220.017929 291.000000,220.018097 
M194.111588,68.612289 
	C194.111588,116.008209 194.111588,163.404129 194.111588,210.814850 
	C262.336029,210.814850 329.891876,210.814850 397.631104,210.814850 
	C397.631104,161.187119 397.631104,111.818092 397.631104,62.366776 
	C329.701935,62.366776 262.033386,62.366776 194.110703,62.366776 
	C194.110703,64.354980 194.110703,66.000542 194.111588,68.612289 
z"/>
<path fill="#E9EFF0" opacity="1.000000" stroke="none" 
	d="
M194.111145,68.129196 
	C194.110703,66.000542 194.110703,64.354980 194.110703,62.366776 
	C262.033386,62.366776 329.701935,62.366776 397.631104,62.366776 
	C397.631104,111.818092 397.631104,161.187119 397.631104,210.814850 
	C329.891876,210.814850 262.336029,210.814850 194.111588,210.814850 
	C194.111588,163.404129 194.111588,116.008209 194.111145,68.129196 
M204.316208,89.829887 
	C200.665161,94.264229 200.582047,98.650452 204.207443,103.220650 
	C205.636322,105.021881 206.975616,107.061699 207.713882,109.213127 
	C210.363220,116.933418 215.683182,119.774635 223.471893,118.283859 
	C232.685349,116.520378 238.507660,121.230316 243.332031,128.552948 
	C240.990158,132.594711 238.187302,136.584213 236.339310,140.975525 
	C235.401413,143.204239 235.374741,146.519485 236.353943,148.709579 
	C238.579178,153.686478 241.369446,158.497498 244.570770,162.911194 
	C245.977127,164.850174 248.851166,166.536133 251.226852,166.795013 
	C256.496735,167.369247 261.916962,167.368790 267.185547,166.786179 
	C269.568726,166.522644 272.449463,164.827957 273.857727,162.880829 
	C277.052124,158.464081 279.273041,153.356369 282.280212,148.786514 
	C284.260071,145.777832 283.808655,143.367981 282.076782,140.582047 
	C279.553406,136.522934 277.264343,132.318161 275.086548,128.541656 
	C280.053650,120.565804 286.489868,116.582695 295.704468,118.271271 
	C297.478546,118.596375 299.522217,118.784096 301.156769,118.215965 
	C303.449615,117.419052 306.178040,116.352516 307.476471,114.520058 
	C310.626801,110.074074 313.325745,105.244598 315.647461,100.306747 
	C316.563904,98.357620 316.825073,95.317894 315.945068,93.454697 
	C313.402649,88.071899 310.286133,82.932465 307.040466,77.927399 
	C306.126160,76.517479 304.053253,75.169533 302.406036,75.028534 
	C280.696625,73.170273 280.692017,73.225723 270.009613,92.120552 
	C269.847260,92.407730 269.512268,92.681335 269.510986,92.962425 
	C269.499847,95.399574 268.820892,98.156746 269.724854,100.208931 
	C271.715698,104.728561 274.514160,108.892441 276.940979,113.128143 
	C268.129211,126.900742 250.641449,127.372803 241.501923,113.239731 
	C242.016663,112.244331 242.525253,111.199409 243.086899,110.183846 
	C252.449600,93.254089 252.152527,99.990021 243.252945,82.885468 
	C240.071960,76.771759 236.079819,75.267586 229.376907,74.528908 
	C216.719147,73.134003 208.775406,77.299232 204.316208,89.829887 
M316.502167,163.963120 
	C311.674591,163.961075 306.799530,163.570709 302.043427,164.152802 
	C300.203979,164.377914 297.586761,166.558273 297.176147,168.287674 
	C296.481995,171.210922 299.083679,172.508484 301.873413,172.702652 
	C303.199524,172.794952 304.535431,172.760391 305.866882,172.760651 
	C322.680115,172.763992 339.493378,172.765656 356.306610,172.762543 
	C365.961731,172.760757 375.623169,172.928680 385.266510,172.588181 
	C387.146729,172.521805 389.271393,170.738525 390.633331,169.179382 
	C391.130035,168.610764 390.146240,165.800262 389.099945,165.070358 
	C387.764954,164.139069 385.683044,164.004715 383.921753,163.999817 
	C361.781708,163.938034 339.641449,163.961716 316.502167,163.963120 
M390.920990,143.348099 
	C390.812653,139.557251 388.545349,138.108398 385.086578,138.106262 
	C357.645264,138.089218 330.203949,138.091858 302.762634,138.099747 
	C299.577179,138.100662 296.976990,139.237625 297.029480,142.815338 
	C297.078613,146.166214 299.534912,147.030273 302.578796,147.025986 
	C330.186371,146.987122 357.794342,147.056335 385.400848,146.878967 
	C387.151398,146.867722 388.890442,145.064346 390.920990,143.348099 
M309.545593,198.210785 
	C334.482422,198.212250 359.419250,198.198608 384.356018,198.233688 
	C387.586517,198.238235 390.866211,197.864136 390.829468,193.905228 
	C390.792603,189.934586 387.488831,189.715759 384.277466,189.725159 
	C366.156921,189.778168 348.036072,189.746429 329.915344,189.743820 
	C320.771912,189.742508 311.628387,189.758331 302.485046,189.731216 
	C299.496307,189.722351 296.994904,190.532593 297.034576,193.999817 
	C297.074066,197.451340 299.626068,198.252136 302.581512,198.228149 
	C304.576355,198.211945 306.571320,198.215881 309.545593,198.210785 
z"/>
<path fill="#0A340C" opacity="1.000000" stroke="none" 
	d="
M204.520996,89.520874 
	C208.775406,77.299232 216.719147,73.134003 229.376907,74.528908 
	C236.079819,75.267586 240.071960,76.771759 243.252945,82.885468 
	C252.152527,99.990021 252.449600,93.254089 243.086899,110.183846 
	C242.525253,111.199409 242.016663,112.244331 241.501923,113.239731 
	C250.641449,127.372803 268.129211,126.900742 276.940979,113.128143 
	C274.514160,108.892441 271.715698,104.728561 269.724854,100.208931 
	C268.820892,98.156746 269.499847,95.399574 269.510986,92.962425 
	C269.512268,92.681335 269.847260,92.407730 270.009613,92.120552 
	C280.692017,73.225723 280.696625,73.170273 302.406036,75.028534 
	C304.053253,75.169533 306.126160,76.517479 307.040466,77.927399 
	C310.286133,82.932465 313.402649,88.071899 315.945068,93.454697 
	C316.825073,95.317894 316.563904,98.357620 315.647461,100.306747 
	C313.325745,105.244598 310.626801,110.074074 307.476471,114.520058 
	C306.178040,116.352516 303.449615,117.419052 301.156769,118.215965 
	C299.522217,118.784096 297.478546,118.596375 295.704468,118.271271 
	C286.489868,116.582695 280.053650,120.565804 275.086548,128.541656 
	C277.264343,132.318161 279.553406,136.522934 282.076782,140.582047 
	C283.808655,143.367981 284.260071,145.777832 282.280212,148.786514 
	C279.273041,153.356369 277.052124,158.464081 273.857727,162.880829 
	C272.449463,164.827957 269.568726,166.522644 267.185547,166.786179 
	C261.916962,167.368790 256.496735,167.369247 251.226852,166.795013 
	C248.851166,166.536133 245.977127,164.850174 244.570770,162.911194 
	C241.369446,158.497498 238.579178,153.686478 236.353943,148.709579 
	C235.374741,146.519485 235.401413,143.204239 236.339310,140.975525 
	C238.187302,136.584213 240.990158,132.594711 243.332031,128.552948 
	C238.507660,121.230316 232.685349,116.520378 223.471893,118.283859 
	C215.683182,119.774635 210.363220,116.933418 207.713882,109.213127 
	C206.975616,107.061699 205.636322,105.021881 204.207443,103.220650 
	C200.582047,98.650452 200.665161,94.264229 204.520996,89.520874 
M303.938873,89.537804 
	C301.863678,86.859535 301.337799,82.520393 296.183136,83.337021 
	C292.617035,83.901978 287.826752,82.279587 285.543060,84.096962 
	C282.145844,86.800476 279.078644,91.492020 278.518280,95.690842 
	C278.067139,99.070969 281.429901,103.030876 283.303223,106.627953 
	C284.790985,109.484688 297.434692,112.022751 299.881378,109.329361 
	C303.042206,105.849792 305.543854,101.479973 307.194122,97.068802 
	C307.819305,95.397797 305.285492,92.544968 303.938873,89.537804 
M234.696838,107.400795 
	C236.349442,104.530403 238.103043,101.711189 239.598190,98.761002 
	C240.101089,97.768707 240.398972,96.268898 240.023773,95.297096 
	C235.873764,84.548393 234.181122,83.435631 222.760559,83.432365 
	C221.762131,83.432076 220.721405,83.265396 219.777573,83.494392 
	C218.891495,83.709366 217.893341,84.159492 217.311874,84.826439 
	C210.681366,92.431473 210.365234,96.340866 215.519394,105.251602 
	C218.456207,110.328896 229.279800,111.942627 234.696838,107.400795 
M271.172760,139.334015 
	C269.044250,133.164337 264.902008,130.541138 258.346832,131.826904 
	C256.749146,132.140305 255.009171,131.690094 253.388977,131.941422 
	C252.414047,132.092651 251.267838,132.706284 250.669189,133.477432 
	C243.659500,142.507019 243.569412,144.059372 249.153458,153.812637 
	C249.644638,154.670563 250.103226,155.575211 250.746399,156.309769 
	C251.333420,156.980194 252.138000,157.911209 252.868423,157.931137 
	C257.340912,158.053192 262.133484,158.898819 266.178162,157.562515 
	C268.595459,156.763901 269.676147,152.299500 271.660156,149.715164 
	C274.257477,146.331924 274.346802,143.188751 271.172760,139.334015 
z"/>
<path fill="#0D3710" opacity="1.000000" stroke="none" 
	d="
M317.001709,163.963318 
	C339.641449,163.961716 361.781708,163.938034 383.921753,163.999817 
	C385.683044,164.004715 387.764954,164.139069 389.099945,165.070358 
	C390.146240,165.800262 391.130035,168.610764 390.633331,169.179382 
	C389.271393,170.738525 387.146729,172.521805 385.266510,172.588181 
	C375.623169,172.928680 365.961731,172.760757 356.306610,172.762543 
	C339.493378,172.765656 322.680115,172.763992 305.866882,172.760651 
	C304.535431,172.760391 303.199524,172.794952 301.873413,172.702652 
	C299.083679,172.508484 296.481995,171.210922 297.176147,168.287674 
	C297.586761,166.558273 300.203979,164.377914 302.043427,164.152802 
	C306.799530,163.570709 311.674591,163.961075 317.001709,163.963318 
z"/>
<path fill="#0C360E" opacity="1.000000" stroke="none" 
	d="
M390.777893,143.721405 
	C388.890442,145.064346 387.151398,146.867722 385.400848,146.878967 
	C357.794342,147.056335 330.186371,146.987122 302.578796,147.025986 
	C299.534912,147.030273 297.078613,146.166214 297.029480,142.815338 
	C296.976990,139.237625 299.577179,138.100662 302.762634,138.099747 
	C330.203949,138.091858 357.645264,138.089218 385.086578,138.106262 
	C388.545349,138.108398 390.812653,139.557251 390.777893,143.721405 
z"/>
<path fill="#053107" opacity="1.000000" stroke="none" 
	d="
M309.055908,198.210785 
	C306.571320,198.215881 304.576355,198.211945 302.581512,198.228149 
	C299.626068,198.252136 297.074066,197.451340 297.034576,193.999817 
	C296.994904,190.532593 299.496307,189.722351 302.485046,189.731216 
	C311.628387,189.758331 320.771912,189.742508 329.915344,189.743820 
	C348.036072,189.746429 366.156921,189.778168 384.277466,189.725159 
	C387.488831,189.715759 390.792603,189.934586 390.829468,193.905228 
	C390.866211,197.864136 387.586517,198.238235 384.356018,198.233688 
	C359.419250,198.198608 334.482422,198.212250 309.055908,198.210785 
z"/>
<path fill="#E4ECEA" opacity="1.000000" stroke="none" 
	d="
M304.065247,89.884315 
	C305.285492,92.544968 307.819305,95.397797 307.194122,97.068802 
	C305.543854,101.479973 303.042206,105.849792 299.881378,109.329361 
	C297.434692,112.022751 284.790985,109.484688 283.303223,106.627953 
	C281.429901,103.030876 278.067139,99.070969 278.518280,95.690842 
	C279.078644,91.492020 282.145844,86.800476 285.543060,84.096962 
	C287.826752,82.279587 292.617035,83.901978 296.183136,83.337021 
	C301.337799,82.520393 301.863678,86.859535 304.065247,89.884315 
z"/>
<path fill="#E4ECEA" opacity="1.000000" stroke="none" 
	d="
M234.466187,107.721436 
	C229.279800,111.942627 218.456207,110.328896 215.519394,105.251602 
	C210.365234,96.340866 210.681366,92.431473 217.311874,84.826439 
	C217.893341,84.159492 218.891495,83.709366 219.777573,83.494392 
	C220.721405,83.265396 221.762131,83.432076 222.760559,83.432365 
	C234.181122,83.435631 235.873764,84.548393 240.023773,95.297096 
	C240.398972,96.268898 240.101089,97.768707 239.598190,98.761002 
	C238.103043,101.711189 236.349442,104.530403 234.466187,107.721436 
z"/>
<path fill="#E7EFEE" opacity="1.000000" stroke="none" 
	d="
M271.377075,139.645645 
	C274.346802,143.188751 274.257477,146.331924 271.660156,149.715164 
	C269.676147,152.299500 268.595459,156.763901 266.178162,157.562515 
	C262.133484,158.898819 257.340912,158.053192 252.868423,157.931137 
	C252.138000,157.911209 251.333420,156.980194 250.746399,156.309769 
	C250.103226,155.575211 249.644638,154.670563 249.153458,153.812637 
	C243.569412,144.059372 243.659500,142.507019 250.669189,133.477432 
	C251.267838,132.706284 252.414047,132.092651 253.388977,131.941422 
	C255.009171,131.690094 256.749146,132.140305 258.346832,131.826904 
	C264.902008,130.541138 269.044250,133.164337 271.377075,139.645645 
z"/>
</svg>